
<svg id="Layer_1" xmlns="http://www.w3.org/2000/svg" width="144.33" height="53.42" x="0" y="0" viewBox="0 0 548.2 207.7" xml:space="preserve">

<style>.st0{fill:#f1dbc1}.st1{fill:#d98b79}.st2{fill:none;stroke:#d98b79;stroke-linejoin:round;stroke-miterlimit:10}
</style>

<path class="st0" d="M296 10.8h27.9c13 0 21.6 4.7 21.6 15.5 0 5.8-2.3 10-6.5 12.8 5.9 2.5 9.4 7.1 9.4 13.9 0 10.7-8.7 15.5-21.6 15.5l-30.8-.1V56.6h5.1v-34H296V10.8zm19.6 24.7h8.3c5.2 0 8.1-2.1 8.1-6.6 0-4.8-2.9-6.4-8.1-6.4h-8.3v13zm0 21.1 11.3.1c5.2-.1 8.2-2 8.2-6.4s-3-6.1-8.2-6.1h-11.3v12.4zM375.9 69.2C363 69.2 353 61.1 353 46c0-15 10.1-23 22.9-23 12.8 0 22.9 8 22.9 23-.1 15.1-10.1 23.2-22.9 23.2zm0-34.3c-5.2 0-8.8 3.9-8.8 11 0 7.2 3.6 11.1 8.8 11.1 5.2 0 8.8-3.9 8.8-11.1-.1-7.2-3.7-11-8.8-11zM425.6 69.2c-12.8 0-22.9-8.1-22.9-23.1 0-15 10.1-23 22.9-23 12.8 0 22.9 8 22.9 23s-10.1 23.1-22.9 23.1zm0-34.3c-5.2 0-8.8 3.9-8.8 11 0 7.2 3.6 11.1 8.8 11.1 5.2 0 8.8-3.9 8.8-11.1 0-7.2-3.6-11-8.8-11zM455.4 58.2V17.7h-5.1V7.5h18.8v34.2h3.5l7-7.7h-4V23.8h24.2V34h-5.2l-11 11.8 8.4 12.4h8.6v10.2H484l-12.3-18.5h-2.5v18.5h-18.8V58.2h5zM296 103.3V83.1h57.7v20.1h-11l-.6-8.3H332V129h5.2v11.8h-24.7V129h5.1V94.9h-10l-.7 8.3H296zM376.3 96.2v8.1c3.4-5.2 8.3-8.9 15.2-8.9.6 0 1.2 0 1.8.1v13.3c-.9-.1-1.6-.2-2.6-.2-7.9 0-13.5 5-14.5 14.9v7h5.1v10.2h-23.9v-10.2h5.1v-24.2h-5.1V96.2h18.9zM414.7 96.2v23.2c0 7.8 2.2 11.2 7.1 11.2 3.4 0 5.6-2.6 7-5.7v-18.5h-5.1V96.2h18.8v34.3h5.1v10.2h-18.8v-4.5c-2.8 3.2-6.5 5.3-11.5 5.3-10.4 0-16.3-6.4-16.3-18.7v-16.5h-5.1V96.2h18.8zM489.2 98.4v18h-12.3l-.7-8.7c-.9-.3-1.8-.4-2.8-.5-5.8.3-10.1 4.1-10.1 11 0 7.2 4.6 11.1 10.7 11.1 4.9 0 9.7-2 13.4-4.6l3.2 11.1c-4.8 3.7-11.9 5.8-18.3 5.8-13.7 0-23.1-8.1-23.1-23.1 0-15 9.4-23 22.8-23 5.9-.1 13.3 1.3 17.2 2.9zM498.9 130.5V90.1h-5.1V79.9h18.8V114h3.5l7-7.7h-4V96.2h24.2v10.2H538l-11 11.8 8.4 12.4h8.6v10.2h-16.6l-12.3-18.5h-2.5v18.5h-18.8v-10.2h5.1zM309.2 160.4c3.7 0 6.2.7 8.6 1.8v8.1h-3.2l-.5-6.4c-1.5-.4-3.2-.6-5.1-.6-4.6 0-8.1 3.3-8.1 9 0 5.8 3.5 9.1 8.6 9.1 2.7 0 5.8-1 7.6-2.7l.8 2.8c-2.2 1.9-5.4 2.8-8.7 2.8-6.8 0-11.8-4.1-11.8-12.1.2-7.8 5.2-11.8 11.8-11.8zM328.5 166.1c2.6 0 4.5.9 5.9 2.4v-2.2h3.2v15.5h2.7v2.4h-5.9V182c-1.4 1.5-3.4 2.4-5.9 2.4-4.6 0-8-3.5-8-9.2 0-5.6 3.5-9.1 8-9.1zm-4.7 9.2c0 3.8 2.4 6.4 5.6 6.4 2.4 0 4.4-1.5 5.1-3.9v-4.9c-.7-2.4-2.6-3.9-5.1-3.9-3.2 0-5.6 2.5-5.6 6.3zM348.4 166.3v4.1c1.5-2.6 3.8-4.3 7.1-4.3h1v3.1c-.4 0-.7-.1-1.1-.1-4.1 0-6.4 2.9-6.9 8.3v4.4h2.8v2.4h-8.6v-2.4h2.7v-13h-2.7v-2.4h5.7zM360.9 166.3v-5.5h3.2v5.5h5.8v2.4h-5.8v8c0 3.5.7 4.7 2.6 4.7.8 0 1.9-.3 3.2-.7l.4 2.9c-1.8.6-3.3.9-4.5.9-3.3 0-4.9-2.3-4.9-7.8v-7.9h-3v-2.4h3zM372.5 166.3h5.9v15.5h2.8v2.4h-8.7v-2.4h2.8v-13h-2.8v-2.5zm1.3-5.1c0-1.4 1.1-2.1 2.8-2.1 1.7 0 2.7.7 2.7 2.1 0 1.5-1.1 2.2-2.7 2.2-1.7 0-2.8-.7-2.8-2.2zM383.2 159.4h5.9v22.5h2.8v2.4h-8.7v-2.4h2.8v-20.1h-2.8v-2.4zM402.3 166.1c5.6 0 8.4 3.8 8.4 8.7 0 .4-.1 1.6-.1 2H397c.6 3 2.8 4.9 6 4.9 2.8 0 4.6-1.3 6-2.9l.8 2.6c-1.7 1.8-3.9 3-7.4 3-5.1 0-8.8-3.5-8.8-9.2-.1-5.6 3.7-9.1 8.7-9.1zm5.6 8.3c0-2.8-1.8-5.6-5.5-5.6-3.1 0-5.2 2.2-5.6 5.6h11.1zM421.8 166.3h5.9v2.3c1.5-1.6 3.5-2.5 6-2.5 4.6 0 8 3.4 8 9.1 0 5.7-3.4 9.2-8 9.2-2.4 0-4.5-.9-6-2.5v6h2.8v2.4h-8.6v-2.4h2.7v-19.1h-2.7v-2.5zm5.9 11.5c.7 2.4 2.6 3.9 5.1 3.9 3.2 0 5.6-2.6 5.6-6.4 0-3.8-2.4-6.3-5.6-6.3-2.4 0-4.4 1.6-5.1 4v4.8zM452.9 166.1c5.6 0 8.4 3.8 8.4 8.7 0 .4-.1 1.6-.1 2h-13.6c.6 3 2.8 4.9 6 4.9 2.8 0 4.6-1.3 6-2.9l.8 2.6c-1.7 1.8-3.9 3-7.4 3-5.1 0-8.8-3.5-8.8-9.2-.1-5.6 3.7-9.1 8.7-9.1zm5.6 8.3c0-2.8-1.8-5.6-5.5-5.6-3.1 0-5.2 2.2-5.6 5.6h11.1zM478.3 166.3v4.1c1.5-2.6 3.8-4.3 7.1-4.3h1v3.1c-.4 0-.7-.1-1.1-.1-4.1 0-6.4 2.9-6.9 8.3v4.4h2.8v2.4h-8.6v-2.4h2.7v-13h-2.7v-2.4h5.7zM496.2 184.5c-4.9 0-8.8-3.5-8.8-9.2 0-5.7 3.8-9.1 8.8-9.1 5 0 8.8 3.4 8.8 9.1 0 5.7-3.9 9.2-8.8 9.2zm0-15.6c-3.1 0-5.5 2.4-5.5 6.3s2.3 6.4 5.5 6.4c3.1 0 5.5-2.5 5.5-6.4 0-3.8-2.4-6.3-5.5-6.3zM509.5 166.3v-5.5h3.2v5.5h5.8v2.4h-5.8v8c0 3.5.7 4.7 2.6 4.7.8 0 1.9-.3 3.2-.7l.4 2.9c-1.8.6-3.3.9-4.5.9-3.3 0-4.9-2.3-4.9-7.8v-7.9h-3v-2.4h3zM521.1 166.3h5.9v15.5h2.8v2.4h-8.7v-2.4h2.8v-13h-2.8v-2.5zm1.4-5.1c0-1.4 1.1-2.1 2.8-2.1 1.7 0 2.7.7 2.7 2.1 0 1.5-1.1 2.2-2.7 2.2-1.7 0-2.8-.7-2.8-2.2zM535.4 179.8c1.4 0 2.4.7 2.4 2.2 0 1.5-1 2.2-2.4 2.2-1.5 0-2.4-.7-2.4-2.2 0-1.4.9-2.2 2.4-2.2z"/>
<path class="st1" d="M136 139.8c-.5.9-1 1.8-1.5 2.8-.9 1.6-.7 2.6.7 3.7 2.5 2.2 5.6 3.2 8.8 3.7.5.1 1.1.2 1.6.4 2.2.7 3.3 2.6 3 4.9-.2 1.7-.7 3.3-1.2 4.9-.5 1.7-.2 2.4 1.4 3.2 1.6.8 3.4 1.1 5.1 1.5 1.3.4 2.6.8 4 1.5-1.1.6-2 1.1-3 1.6-1.2.7-2.3 1.4-2.8 2.8-.3.8-.4 1.7-.1 2.5.2.6.6.9 1.2 1 3.7.9 5.8 3.6 5.7 7.5 0 .6 0 1.2-.1 1.8-.7 4 1 6.8 4.2 9 2.4 1.6 5.2 2.1 7.9 2.8.4.1.7 0 1.1-.2 5.2-1.6 10.1-3.8 14.9-6.1 16.1-7.6 31.2-16.9 45.4-27.5 3.9-2.9 7.7-6.1 11.2-9.6.2 0 .3 0 .3.3-2.3 4.2-5.3 7.8-8.6 11.2-8.1 8.4-17.5 15-27.5 20.8-7.7 4.5-15.9 7.9-24.6 10.1-4 1-8 1.9-12.1 1.8-.4 0-.8.1-1.2.2-7.7 2.8-15.7 4.2-23.9 4.9-13.1 1.1-25.9-.5-38.6-3.7-11.9-3-23.6-6.4-35-10.9l-2.1-.9c.2-.5.5-.2.8-.2 5.5.5 11 1.4 16.5 2.4 10.3 1.8 20.5 4.4 30.7 6.6 12.1 2.6 24.3 3.4 36.7 2.9 3.8-.2 7.6-.4 11.4-.9.1-.4-.3-.2-.4-.4-2.6-.5-5.1-1.3-6.9-3.3-2-2.1-2.6-4.7-2.7-7.5-.1-1.6 0-3.3 0-4.9 0-2-1-3.4-3-3.9-3.4-.9-4.8-5-2.6-7.9.4-.6 1-1.1 1.7-1.7-1.7-.6-3.3-1.1-4.9-1.6-.4-.1-.7-.3-1-.4-1.9-.9-2.5-2.2-1.6-4.2.6-1.4 1.2-2.7 1.5-4.1.6-2.4-.2-3.9-2.6-4.6-1.5-.5-3.1-.8-4.7-1.3-1.4-.4-2.9-1-4.1-1.8-2.6-1.7-3.4-4-2.5-6.9.5-1.5 1.3-3 2.2-4.3.4-.4 1-.6 1.3-1.1.1-.2.4-.3.6-.1.2.4.7 1 .1 1.4-.7.5-.6 1.2-.7 1.8"/>
<path class="st2" d="M136 139.8c-.5.9-1 1.8-1.5 2.8-.9 1.6-.7 2.6.7 3.7 2.5 2.2 5.6 3.2 8.8 3.7.5.1 1.1.2 1.6.4 2.2.7 3.3 2.6 3 4.9-.2 1.7-.7 3.3-1.2 4.9-.5 1.7-.2 2.4 1.4 3.2 1.6.8 3.4 1.1 5.1 1.5 1.3.4 2.6.8 4 1.5-1.1.6-2 1.1-3 1.6-1.2.7-2.3 1.4-2.8 2.8-.3.8-.4 1.7-.1 2.5.2.6.6.9 1.2 1 3.7.9 5.8 3.6 5.7 7.5 0 .6 0 1.2-.1 1.8-.7 4 1 6.8 4.2 9 2.4 1.6 5.2 2.1 7.9 2.8.4.1.7 0 1.1-.2 5.2-1.6 10.1-3.8 14.9-6.1 16.1-7.6 31.2-16.9 45.4-27.5 3.9-2.9 7.7-6.1 11.2-9.6.2 0 .3 0 .3.3-2.3 4.2-5.3 7.8-8.6 11.2-8.1 8.4-17.5 15-27.5 20.8-7.7 4.5-15.9 7.9-24.6 10.1-4 1-8 1.9-12.1 1.8-.4 0-.8.1-1.2.2-7.7 2.8-15.7 4.2-23.9 4.9-13.1 1.1-25.9-.5-38.6-3.7-11.9-3-23.6-6.4-35-10.9l-2.1-.9c.2-.5.5-.2.8-.2 5.5.5 11 1.4 16.5 2.4 10.3 1.8 20.5 4.4 30.7 6.6 12.1 2.6 24.3 3.4 36.7 2.9 3.8-.2 7.6-.4 11.4-.9.1-.4-.3-.2-.4-.4-2.6-.5-5.1-1.3-6.9-3.3-2-2.1-2.6-4.7-2.7-7.5-.1-1.6 0-3.3 0-4.9 0-2-1-3.4-3-3.9-3.4-.9-4.8-5-2.6-7.9.4-.6 1-1.1 1.7-1.7-1.7-.6-3.3-1.1-4.9-1.6-.4-.1-.7-.3-1-.4-1.9-.9-2.5-2.2-1.6-4.2.6-1.4 1.2-2.7 1.5-4.1.6-2.4-.2-3.9-2.6-4.6-1.5-.5-3.1-.8-4.7-1.3-1.4-.4-2.9-1-4.1-1.8-2.6-1.7-3.4-4-2.5-6.9.5-1.5 1.3-3 2.2-4.3.4-.4 1-.6 1.3-1.1.1-.2.4-.3.6-.1.2.4.7 1 .1 1.4-.7.5-.6 1.2-.7 1.8z"/>
<path class="st1" d="M133.1 57.6c-.5.3-.4.5.1.7 2.4.9 4.8 1.9 7.2 2.9 1.4.6 2.7 1.2 4 1.9-.1.5-.4.3-.6.2-6.1-1.8-12.3-3.4-18.6-4.8-8.1-1.7-16.3-3-24.5-4-11.1-1.3-22.2-2-33.4-1.9-13 .1-26 .4-39 .6-8.4.1-16.7.1-25-.2-.2 0-.3 0-.5-.1-.1-.1-.1-.1-.1-.2 0 0 0-.1.1-.1 3.5-.7 7-1.2 10.6-1.6 8.3-1.1 16.7-2 25.1-2.6 13.7-1 27.4-1.7 41.2-.9 16.9 1.1 33.4 3.9 49.4 9.2.7.2 1.4.4 2 .7.7.3 1.2.2 1.6-.3.1-.1.3-.1.4 0 .1.3 0 .4 0 .5"/>
<path class="st2" d="M133.1 57.6c-.5.3-.4.5.1.7 2.4.9 4.8 1.9 7.2 2.9 1.4.6 2.7 1.2 4 1.9-.1.5-.4.3-.6.2-6.1-1.8-12.3-3.4-18.6-4.8-8.1-1.7-16.3-3-24.5-4-11.1-1.3-22.2-2-33.4-1.9-13 .1-26 .4-39 .6-8.4.1-16.7.1-25-.2-.2 0-.3 0-.5-.1-.1-.1-.1-.1-.1-.2 0 0 0-.1.1-.1 3.5-.7 7-1.2 10.6-1.6 8.3-1.1 16.7-2 25.1-2.6 13.7-1 27.4-1.7 41.2-.9 16.9 1.1 33.4 3.9 49.4 9.2.7.2 1.4.4 2 .7.7.3 1.2.2 1.6-.3.1-.1.3-.1.4 0 .1.3 0 .4 0 .5z"/>
<path class="st1" d="M236.8 6.3c-4.5 1.5-9.1 3-13.6 4.7-13.9 5.3-27.4 11.7-40.6 18.6-13 6.8-25.9 14-38.6 21.4-3.3 1.9-6.5 3.8-9.7 5.8-.5.2-.7 0-.7-.5 4.1-3.7 8.5-7.1 12.9-10.3C163.3 33.9 181 23.4 200 15.2c11.1-4.8 22.5-8.5 34.4-10.7.3-.1.7-.1 1-.1h1.7c.3 0 .9.1.9.3-.1.6.5.3.6.6-.5.5-1.2.7-1.8 1"/>
<path class="st2" d="M236.8 6.3c-4.5 1.5-9.1 3-13.6 4.7-13.9 5.3-27.4 11.7-40.6 18.6-13 6.8-25.9 14-38.6 21.4-3.3 1.9-6.5 3.8-9.7 5.8-.5.2-.7 0-.7-.5 4.1-3.7 8.5-7.1 12.9-10.3C163.3 33.9 181 23.4 200 15.2c11.1-4.8 22.5-8.5 34.4-10.7.3-.1.7-.1 1-.1h1.7c.3 0 .9.1.9.3-.1.6.5.3.6.6-.5.5-1.2.7-1.8 1z"/>
<path class="st1" d="M77.1 178.7c0 .1 0 .2-.2.3-.2 0-.3-.1-.4-.2-.4-.5-.7-1.1-1.1-1.6-9-13.9-17.1-28.2-24.2-43.1-6.7-13.9-13.5-27.7-20.2-41.5-4.3-8.9-8.5-17.7-12.8-26.6-.1-.3-.6-.6-.2-.9.4-.2.5.4.6.6 9.1 16.3 18.1 32.6 27 49 5 9.2 10.1 18.2 15 27.5 6.1 11.7 11.6 23.7 16.3 36 0 0 .1.2.2.5"/>
<path class="st2" d="M77.1 178.7c0 .1 0 .2-.2.3-.2 0-.3-.1-.4-.2-.4-.5-.7-1.1-1.1-1.6-9-13.9-17.1-28.2-24.2-43.1-6.7-13.9-13.5-27.7-20.2-41.5-4.3-8.9-8.5-17.7-12.8-26.6-.1-.3-.6-.6-.2-.9.4-.2.5.4.6.6 9.1 16.3 18.1 32.6 27 49 5 9.2 10.1 18.2 15 27.5 6.1 11.7 11.6 23.7 16.3 36 0 0 .1.2.2.5z"/>
<path class="st1" d="M248 116.8c0 3.6-.4 7.3-.7 10.9-.6 6.8-1.3 13.6-2.2 20.4l-.3 2.1c-.1.4.1 1-.4 1-.6 0-.3-.7-.4-1.1-.3-3.6-.5-7.1-.7-10.7-.5-11.7-.7-23.4-.2-35.1.2-6.5.7-13 1.1-19.6.3-5.8.6-11.7 1-17.5.3-6.1.7-12.3 1.1-18.4.1-.2.1-.3.1-.5 0-.5 0-.9.6-1 .6-.1 1.2 0 1.5.7.1.3.2.7.1 1-.1 1.9-.3 3.8 0 5.6.1.6-.2 1.2-.2 1.7.2 2.5-.1 5 .1 7.5 0 .1 0 .3-.1.4-.1 3.2-.2 6.4 0 9.6.1 1.3-.3 2.6-.1 3.9 0 .3 0 .7.1 1 0 .1.1.3.1.4-.3 2.1.1 4.2 0 6.3-.1 4.6-.2 9.2-.2 13.8 0 .9 0 1.7.1 2.6v.4c-.2 1.2 0 2.5 0 3.7-.1 3.6-.3 7.2-.4 10.9"/>
<path class="st2" d="M248 116.8c0 3.6-.4 7.3-.7 10.9-.6 6.8-1.3 13.6-2.2 20.4l-.3 2.1c-.1.4.1 1-.4 1-.6 0-.3-.7-.4-1.1-.3-3.6-.5-7.1-.7-10.7-.5-11.7-.7-23.4-.2-35.1.2-6.5.7-13 1.1-19.6.3-5.8.6-11.7 1-17.5.3-6.1.7-12.3 1.1-18.4.1-.2.1-.3.1-.5 0-.5 0-.9.6-1 .6-.1 1.2 0 1.5.7.1.3.2.7.1 1-.1 1.9-.3 3.8 0 5.6.1.6-.2 1.2-.2 1.7.2 2.5-.1 5 .1 7.5 0 .1 0 .3-.1.4-.1 3.2-.2 6.4 0 9.6.1 1.3-.3 2.6-.1 3.9 0 .3 0 .7.1 1 0 .1.1.3.1.4-.3 2.1.1 4.2 0 6.3-.1 4.6-.2 9.2-.2 13.8 0 .9 0 1.7.1 2.6v.4c-.2 1.2 0 2.5 0 3.7-.1 3.6-.3 7.2-.4 10.9z"/>
<path class="st1" d="M30.8 108.2c3 5.4 6.1 10.8 9.1 16.2 6.2 11.2 12.5 22.4 18.6 33.6 4.1 7.6 7.7 15.4 10.8 23.5.1.2.3.4.1.7-.4 0-.5-.5-.7-.7-6.3-9.5-11.9-19.5-16.9-29.8-6.9-14.1-13.9-28.2-20.8-42.3-.1-.2-.2-.5-.3-.7-.2-.3-.3-.5.1-.5"/>
<path class="st2" d="M30.8 108.2c3 5.4 6.1 10.8 9.1 16.2 6.2 11.2 12.5 22.4 18.6 33.6 4.1 7.6 7.7 15.4 10.8 23.5.1.2.3.4.1.7-.4 0-.5-.5-.7-.7-6.3-9.5-11.9-19.5-16.9-29.8-6.9-14.1-13.9-28.2-20.8-42.3-.1-.2-.2-.5-.3-.7-.2-.3-.3-.5.1-.5z"/>
<path class="st1" d="M248.2 102.1c-.3-.4-.2-.8-.2-1.2 0-3.7-.1-7.3 0-11 0-1.5.1-3.1.2-4.6 0-1.1-.3-2.2-.2-3.3.1-1 0-2 .3-3.1.1-.1.1-.1 0 0-.5-.9-.3-1.9-.2-2.8.1-.9 0-1.7 0-2.5-.1-3 0-6 0-9 0-.2.1-.3.2-.4.1.1.2.2.2.3-.1-.1-.1-.2-.2-.3-.2-1.4-.3-2.7 0-4.1.1-.6-.2-1.3-.1-2 .2-2.6 0-5.3 0-7.9 0-.4.1-.8.2-1.2.1-.9-.5-1.5-1.4-1.3-.8.1-.2.9-.6 1.2.2-3.9.4-7.7.6-11.6v-1l.6-8.1c.5-7.7 1-15.5 1.4-23.2v-.6c.2-.8-.2-1-.9-.8-3.5.7-7 1.7-10.4 2.7-.2.1-.4.1-.6.1.5-.3.9-.9 1.6-1-.3 0-.7 0-1-.1.2-.3.5 0 .7-.3-.8-.6-1.8 0-2.6-.5 4.4-.9 8.9-1.3 13.4-1.2.8 0 .5.5.5.9v12.3c-.1 19.6-.3 39.2-.5 58.9-.1 8.6-.1 17.2-.2 25.9-.1 4.9-.4 9.8-.6 14.7 0 .3-.1.6-.1.9v-6.3c0-2.4 0-4.9-.1-7.3-.2-.6-.4-1 0-1.2.1.4.1.7.1.8-.1-.2 0-.5-.1-.8"/>
<path class="st2" d="M248.2 102.1c-.3-.4-.2-.8-.2-1.2 0-3.7-.1-7.3 0-11 0-1.5.1-3.1.2-4.6 0-1.1-.3-2.2-.2-3.3.1-1 0-2 .3-3.1.1-.1.1-.1 0 0-.5-.9-.3-1.9-.2-2.8.1-.9 0-1.7 0-2.5-.1-3 0-6 0-9 0-.2.1-.3.2-.4.1.1.2.2.2.3-.1-.1-.1-.2-.2-.3-.2-1.4-.3-2.7 0-4.1.1-.6-.2-1.3-.1-2 .2-2.6 0-5.3 0-7.9 0-.4.1-.8.2-1.2.1-.9-.5-1.5-1.4-1.3-.8.1-.2.9-.6 1.2.2-3.9.4-7.7.6-11.6v-1l.6-8.1c.5-7.7 1-15.5 1.4-23.2v-.6c.2-.8-.2-1-.9-.8-3.5.7-7 1.7-10.4 2.7-.2.1-.4.1-.6.1.5-.3.9-.9 1.6-1-.3 0-.7 0-1-.1.2-.3.5 0 .7-.3-.8-.6-1.8 0-2.6-.5 4.4-.9 8.9-1.3 13.4-1.2.8 0 .5.5.5.9v12.3c-.1 19.6-.3 39.2-.5 58.9-.1 8.6-.1 17.2-.2 25.9-.1 4.9-.4 9.8-.6 14.7 0 .3-.1.6-.1.9v-6.3c0-2.4 0-4.9-.1-7.3-.2-.6-.4-1 0-1.2.1.4.1.7.1.8-.1-.2 0-.5-.1-.8z"/>
<path class="st1" d="M136 139.8c-.3-.5-.4-1.2.2-1.6.7-.5.4-1 .3-1.5-.4.4-.7.7-.5 1.3-.4-.6-.8-.1-1.1-.1 1.6-2.7 3.3-5.3 4.9-8 1.9-3.2 3.4-6.5 4.2-10.1.5-2 .4-4-.4-5.9-1.1-2.7-2-5.4-3.2-8-1.8-4.2-2.3-8.5-1.3-13 .8-3.5 1.2-7.2 2.1-10.7.7 0 .4.5.4.9s-.2.8-.3 1.3c-.1.7-.1.7.5.9-.4 1.7-.6 3.5-1.1 5.2-1.4 5.2-.7 10.3 1.1 15.2 1 2.7 2.3 5.3 3.8 7.7 1 1.6 1.6 3.3.9 5.3-.2.2-.4-.4-.6 0-.1.1-.4 0-.3-.2.1-.5 0-1 .6-1.2.1 0 0 .1.1.1-.6-1.2-.7-2.6-1.9-3.6.2.9.7 1.6.6 2.4-.1 1.4.2 2.8-.3 4.1-.1.2.1 0 .1 0 .4 0 .7.2.8.7-1.1 3-2.5 5.9-4 8.7-1.7 3.5-3.5 6.9-5.6 10.1"/>
<path class="st2" d="M136 139.8c-.3-.5-.4-1.2.2-1.6.7-.5.4-1 .3-1.5-.4.4-.7.7-.5 1.3-.4-.6-.8-.1-1.1-.1 1.6-2.7 3.3-5.3 4.9-8 1.9-3.2 3.4-6.5 4.2-10.1.5-2 .4-4-.4-5.9-1.1-2.7-2-5.4-3.2-8-1.8-4.2-2.3-8.5-1.3-13 .8-3.5 1.2-7.2 2.1-10.7.7 0 .4.5.4.9s-.2.8-.3 1.3c-.1.7-.1.7.5.9-.4 1.7-.6 3.5-1.1 5.2-1.4 5.2-.7 10.3 1.1 15.2 1 2.7 2.3 5.3 3.8 7.7 1 1.6 1.6 3.3.9 5.3-.2.2-.4-.4-.6 0-.1.1-.4 0-.3-.2.1-.5 0-1 .6-1.2.1 0 0 .1.1.1-.6-1.2-.7-2.6-1.9-3.6.2.9.7 1.6.6 2.4-.1 1.4.2 2.8-.3 4.1-.1.2.1 0 .1 0 .4 0 .7.2.8.7-1.1 3-2.5 5.9-4 8.7-1.7 3.5-3.5 6.9-5.6 10.1z"/>
<path class="st1" d="M141.7 85.3c-.6-.3-.3.4-.5.5-.8-.7-.2-1.4-.1-2.2 0-.5.5-1 0-1.4.8-4.2 2-8.3 3-12.4.5-1.8.9-3.7 2.2-5.2.1-.1.2-.1.3 0-.9 3.4-1.8 6.7-2.4 10.1-.1.3-.1.5-.1.8-.5 1.9-.9 3.9-1.4 5.8-.5 1.2-.7 2.5-.8 3.8-.1.1-.1.2-.2.2"/>
<path class="st2" d="M141.7 85.3c-.6-.3-.3.4-.5.5-.8-.7-.2-1.4-.1-2.2 0-.5.5-1 0-1.4.8-4.2 2-8.3 3-12.4.5-1.8.9-3.7 2.2-5.2.1-.1.2-.1.3 0-.9 3.4-1.8 6.7-2.4 10.1-.1.3-.1.5-.1.8-.5 1.9-.9 3.9-1.4 5.8-.5 1.2-.7 2.5-.8 3.8-.1.1-.1.2-.2.2z"/>
<path class="st1" d="M133.7 56.4c.1.3.3.5.7.5-.4.4-.8.6-1.3.8 0-.3-.2-.4-.4-.4.2-.4.6-.7 1-.9"/>
<path class="st2" d="M133.7 56.4c.1.3.3.5.7.5-.4.4-.8.6-1.3.8 0-.3-.2-.4-.4-.4.2-.4.6-.7 1-.9z"/>
<path class="st1" d="M30.8 108.2c-.2.1-.2.3-.2.5-.4-.6-.8-1.3-1-2.3.7.6.9 1.2 1.2 1.8"/>
<path class="st2" d="M30.8 108.2c-.2.1-.2.3-.2.5-.4-.6-.8-1.3-1-2.3.7.6.9 1.2 1.2 1.8z"/>
<path class="st1" d="M143.8 63.3c.2-.1.5.1.6-.2.5.2 1 .3 1.3.8-.7-.1-1.3-.3-1.9-.6"/>
<path class="st2" d="M143.8 63.3c.2-.1.5.1.6-.2.5.2 1 .3 1.3.8-.7-.1-1.3-.3-1.9-.6z"/>
<path class="st1" d="M71 185.7c-.3.2-.6-.1-.8.2-.3.1-.5-.1-.8-.4.7 0 1.1-.1 1.6.2"/>
<path class="st2" d="M71 185.7c-.3.2-.6-.1-.8.2-.3.1-.5-.1-.8-.4.7 0 1.1-.1 1.6.2z"/>
<path class="st0" d="m243.7 152.4-.3-.3c.1-.1.1-.3.2-.4.1-.1.3-.2.3-.2.3.4 0 .6-.2.9"/>
<path class="st2" d="m243.7 152.4-.3-.3c.1-.1.1-.3.2-.4.1-.1.3-.2.3-.2.3.4 0 .6-.2.9z"/>
<path class="st1" d="M165.9 196.3h.6c.1 0 .3.2.3.2-.1.2-.3.2-.4.1-.3-.1-.4-.2-.5-.3"/>
<path class="st2" d="M165.9 196.3h.6c.1 0 .3.2.3.2-.1.2-.3.2-.4.1-.3-.1-.4-.2-.5-.3z"/>
<path class="st1" d="M146.5 64.7h-.3c0-.2.1-.5.3-.6.2.2.3.4 0 .6"/>
<path class="st2" d="M146.5 64.7h-.3c0-.2.1-.5.3-.6.2.2.3.4 0 .6z"/>
<path class="st1" d="M145.7 121c-.2-.2-.4-.4-.8-.4-.3.1.5.7-.1.7-.4 0-.1-.5-.1-.8 0-.9.6-1.8 0-2.8-.1-.1.4-.6.3-1.2-.2-.8-.1-1.6-.6-2.3-.2-.2-.2-.7.1-.8.3-.2.4.3.7.4.6.5.5 1.5 1.3 1.8-.4.8.2 1.5.1 2.2-.1-.1-.1-.3-.2-.5-.1.4-.3.8-.4 1.2.3-.1.6-.2.8.1-.4 1-.7 1.7-1.1 2.4"/>
<path class="st2" d="M145.7 121c-.2-.2-.4-.4-.8-.4-.3.1.5.7-.1.7-.4 0-.1-.5-.1-.8 0-.9.6-1.8 0-2.8-.1-.1.4-.6.3-1.2-.2-.8-.1-1.6-.6-2.3-.2-.2-.2-.7.1-.8.3-.2.4.3.7.4.6.5.5 1.5 1.3 1.8-.4.8.2 1.5.1 2.2-.1-.1-.1-.3-.2-.5-.1.4-.3.8-.4 1.2.3-.1.6-.2.8.1-.4 1-.7 1.7-1.1 2.4z"/>
<path class="st1" d="M141.8 85.1c-.2-1.4.2-2.6.8-3.8-.2 1.4-.4 2.6-.8 3.8"/>
<path class="st2" d="M141.8 85.1c-.2-1.4.2-2.6.8-3.8-.2 1.4-.4 2.6-.8 3.8z"/>
<path class="st0" d="M248.5 84.1v2.8h-.1v-2.8h.1"/>
<path class="st2" d="M248.5 84.1v2.8h-.1v-2.8h.1z"/>
<path class="st0" d="M248.5 74.3V76c-.2-.6-.2-1.2 0-1.7"/>
<path class="st2" d="M248.5 74.3V76c-.2-.6-.2-1.2 0-1.7z"/>
<path class="st0" d="M248.4 80.8h.1v1.6h-.1z"/>
<path class="st2" d="M248.4 80.8h.1v1.6h-.1z"/>
<path class="st0" d="M248.4 98.6c.2.8.1 1.3 0 1.9v-1.9z"/>
<path class="st2" d="M248.4 98.6c.2.8.1 1.3 0 1.9v-1.9z"/>
<path class="st0" d="M248.6 52.5c-.1.1-.1.3-.3.3-.2 0-.2-.2-.1-.3 0-.1.2-.2.3-.3.1 0 .2.1.1.3"/>
<path class="st2" d="M248.6 52.5c-.1.1-.1.3-.3.3-.2 0-.2-.2-.1-.3 0-.1.2-.2.3-.3.1 0 .2.1.1.3z"/>
<path class="st0" d="M248.4 57.5v-1.4c.1.4.3.9 0 1.4"/>
<path class="st2" d="M248.4 57.5v-1.4c.1.4.3.9 0 1.4z"/>
<path class="st0" d="M248.3 98.8c-.2-.6-.1-1 0-1.5v1.5z"/>
<path class="st2" d="M248.3 98.8c-.2-.6-.1-1 0-1.5v1.5z"/>
<path class="st0" d="M248.2 72.1v-1.2h.1v1.2h-.1"/>
<path class="st2" d="M248.2 72.1v-1.2h.1v1.2h-.1z"/>
<path class="st0" d="M248.5 47.6V49c-.1-.5-.3-1 0-1.4"/>
<path class="st2" d="M248.5 47.6V49c-.1-.5-.3-1 0-1.4z"/>
<path class="st1" d="M242.4 4.4h-1.2v-.1l1.2.1c-.1 0-.1 0 0 0"/>
<path class="st2" d="M242.4 4.4h-1.2v-.1l1.2.1c-.1 0-.1 0 0 0z"/>
<path class="st0" d="M248.9 50.4c-.2-.3-.2-.6 0-1v1z"/>
<path class="st2" d="M248.9 50.4c-.2-.3-.2-.6 0-1v1z"/>
<path class="st0" d="M248.2 102c.2.4.2.8 0 1.2V102z"/>
<path class="st2" d="M248.2 102c.2.4.2.8 0 1.2V102z"/>
<path class="st0" d="M248.8 47.6h-.2v-1.2h.2v1.2z"/>
<path class="st2" d="M248.8 47.6h-.2v-1.2h.2v1.2z"/>
<path class="st0" d="M247.8 44.4c.1.6.2.9 0 1.4-.1-.4-.1-.8 0-1.4"/>
<path class="st2" d="M247.8 44.4c.1.6.2.9 0 1.4-.1-.4-.1-.8 0-1.4z"/>
<path class="st0" d="M248.7 47.4c.3.5.3.8.1 1.4 0-.6 0-.9-.1-1.4"/>
<path class="st2" d="M248.7 47.4c.3.5.3.8.1 1.4 0-.6 0-.9-.1-1.4z"/>
<path class="st0" d="M248.5 63c.2 0 .3.2.3.3 0 .1-.1.2-.1.2-.2 0-.2-.1-.2-.3-.1-.1-.1-.2 0-.2"/>
<path class="st2" d="M248.5 63c.2 0 .3.2.3.3 0 .1-.1.2-.1.2-.2 0-.2-.1-.2-.3-.1-.1-.1-.2 0-.2z"/>
<path class="st0" d="M248.1 64c.5.1.5.4.4.7-.3-.1-.3-.4-.4-.7"/>
<path class="st2" d="M248.1 64c.5.1.5.4.4.7-.3-.1-.3-.4-.4-.7z"/>
<path class="st0" d="M248.4 57.5v.9c-.3-.4-.3-.7 0-.9"/>
<path class="st2" d="M248.4 57.5v.9c-.3-.4-.3-.7 0-.9z"/>
<path class="st0" d="M248.2 78.1c.2.3.4.6.1.7-.3.2-.1-.1-.2-.2 0-.1.1-.2.1-.5"/>
<path class="st2" d="M248.2 78.1c.2.3.4.6.1.7-.3.2-.1-.1-.2-.2 0-.1.1-.2.1-.5z"/>
<path class="st1" d="M241.2 4c-.3.1-.6.2-.7 0 .2-.2.4-.2.7 0"/>
<path class="st2" d="M241.2 4c-.3.1-.6.2-.7 0 .2-.2.4-.2.7 0z"/>
<path class="st0" d="M244.9 3.9c-.1 0-.2.1-.4.1-.1 0-.2 0-.1-.2.1-.1.2-.1.4-.2 0 .1.1.2.1.3"/>
<path class="st2" d="M244.9 3.9c-.1 0-.2.1-.4.1-.1 0-.2 0-.1-.2.1-.1.2-.1.4-.2 0 .1.1.2.1.3z"/>
<path class="st0" d="M248.5 60.6c-.1-.2-.1-.4 0-.7.1.3.1.5 0 .7"/>
<path class="st2" d="M248.5 60.6c-.1-.2-.1-.4 0-.7.1.3.1.5 0 .7z"/>
<path class="st1" d="M237.6 4.3c.2-.1.4-.1.7 0-.3.2-.5.2-.7 0"/>
<path class="st2" d="M237.6 4.3c.2-.1.4-.1.7 0-.3.2-.5.2-.7 0z"/>
<path class="st0" d="M324.1 162.5v-1.7c1.3 1 3.2 2.1 5.6 2.1 2.4 0 4.2-1.2 5.5-2.1v1.7c-1.1 1-2.9 2.3-5.5 2.3s-4.5-1.3-5.6-2.3M512.1 189.2v-2.8h3.1v2.8c0 1.8-1.1 3.2-3.1 3.2v-1.2c1 0 1.5-.8 1.5-2h-1.5zM364.2 189.2v-2.8h3.1v2.8c0 1.8-1.1 3.2-3.1 3.2v-1.2c1 0 1.5-.8 1.5-2h-1.5z"/>
<path style="fill:none" d="M0 0h612v792H0z"/>
</svg>