<svg version="1.2" xmlns="http://www.w3.org/2000/svg" viewBox="0 0 123 261" width="123" height="261">
    <style>
		.s0 { fill: #06232e } 
	</style>
    <path id="Layer" fill-rule="evenodd" class="s0" d="m69.1 228.6l-0.8 0.7c-0.8 12.3-2.9 30-2.9 30h-8c0 0-2.1-17.8-2.9-30.1l-0.8-0.6c0 0-107.4-79.7-14.7-197.7 10.8-12.8 20.2-25.9 22.1-28.5q0-0.1 0.1-0.2 0.1 0 0.2 0 0.1 0 0.2 0 0.1 0.1 0.2 0.2c1.8 2.6 11.2 15.7 22 28.5 92.7 118-14.7 197.7-14.7 197.7zm-1.6-7.9v-0.2l-5.8-128.6q0-0.1-0.1-0.2-0.1 0-0.2 0-0.1 0-0.2 0-0.1 0.1-0.1 0.2l-5.8 128.6v0.2c1.3 2.1 6.1 6.2 6.1 6.2 0 0 4.8-4.1 6.1-6.2z" />
</svg>