<svg version="1.2" xmlns="http://www.w3.org/2000/svg" viewBox="0 0 125 125" width="125" height="125">
	<title>slack-svg</title>
	<style>
		.s0 { fill: #e01e5a } 
		.s1 { fill: #36c5f0 } 
		.s2 { fill: #2eb67d } 
		.s3 { fill: #ecb22e } 
	</style>
	<g id="Layer">
		<g id="Layer">
			<path id="Layer" class="s0" d="m26.4 78.2c0 7.1-5.8 12.9-12.9 12.9-7.1 0-12.9-5.8-12.9-12.9 0-7.1 5.8-12.9 12.9-12.9h12.9z"/>
			<path id="Layer" class="s0" d="m32.9 78.2c0-7.1 5.8-12.9 12.9-12.9 7.1 0 12.9 5.8 12.9 12.9v32.3c0 7.1-5.8 12.9-12.9 12.9-7.1 0-12.9-5.8-12.9-12.9z"/>
		</g>
		<g id="Layer">
			<path id="Layer" class="s1" d="m45.8 26.4c-7.1 0-12.9-5.8-12.9-12.9 0-7.1 5.8-12.9 12.9-12.9 7.1 0 12.9 5.8 12.9 12.9v12.9z"/>
			<path id="Layer" class="s1" d="m45.8 32.9c7.1 0 12.9 5.8 12.9 12.9 0 7.1-5.8 12.9-12.9 12.9h-32.3c-7.1 0-12.9-5.8-12.9-12.9 0-7.1 5.8-12.9 12.9-12.9z"/>
		</g>
		<g id="Layer">
			<path id="Layer" class="s2" d="m97.6 45.8c0-7.1 5.8-12.9 12.9-12.9 7.1 0 12.9 5.8 12.9 12.9 0 7.1-5.8 12.9-12.9 12.9h-12.9z"/>
			<path id="Layer" class="s2" d="m91.1 45.8c0 7.1-5.8 12.9-12.9 12.9-7.1 0-12.9-5.8-12.9-12.9v-32.3c0-7.1 5.8-12.9 12.9-12.9 7.1 0 12.9 5.8 12.9 12.9z"/>
		</g>
		<g id="Layer">
			<path id="Layer" class="s3" d="m78.2 97.6c7.1 0 12.9 5.8 12.9 12.9 0 7.1-5.8 12.9-12.9 12.9-7.1 0-12.9-5.8-12.9-12.9v-12.9z"/>
			<path id="Layer" class="s3" d="m78.2 91.1c-7.1 0-12.9-5.8-12.9-12.9 0-7.1 5.8-12.9 12.9-12.9h32.3c7.1 0 12.9 5.8 12.9 12.9 0 7.1-5.8 12.9-12.9 12.9z"/>
		</g>
	</g>
</svg>