<svg xmlns="http://www.w3.org/2000/svg" viewBox="0 0 512 237">
    <defs>
        <linearGradient id="g1" x1="12596.4" y1="517.2" x2="12596.4" y2="23010.7" gradientUnits="userSpaceOnUse">
            <stop offset="0" stop-color="#97d9f6"></stop>
            <stop offset="0.9" stop-color="#0f80cc"></stop>
            <stop offset="1" stop-color="#0f80cc"></stop>
        </linearGradient>
    </defs>
    <style>.s0{fill:#003b57}</style>
    <g id="Layer">
        <path fill-rule="evenodd" class="s0" d="M206.8 118.3q3.1 1 4.3 1 1 0 1.4-.4.3-.5.8-2h2.3v19.8h-2.5q-.9-8.2-5.9-12.8-5.1-4.6-12.9-4.6-6.8 0-11 3.5-4.2 3.4-4.2 9.2.1 5.3 3.5 9.7 3.5 4.4 15 11.3c8.9 5.4 14.9 10 18 14q4.6 6 4.6 13.7 0 10-7 17c-4.7 4.7-10.4 7.1-17 7.1-3.8 0-8.7-1.1-14.7-3.2-2.4-.9-4-1.3-4.7-1.3q-2 0-3.2 3.3h-2.5v-22.9h2.5q.1 9.4 6.2 15.1 6 5.7 14.1 5.7 7.8 0 12.4-4.1c3.1-2.7 4.6-6.4 4.6-10.9q0-5.2-3.8-9.9c-2.5-3.1-7.8-7.1-15.9-12q-9.9-6.1-13.2-9.7-3.3-3.5-4.9-7.7-1.6-4.2-1.6-9.3c0-6.5 2.1-11.8 6.4-15.8q6.4-6.1 16.6-6.1 5.6.1 12.3 2.3zm102.5 10.6c8.8 8.5 13.2 18.9 13.2 31.4q0 15.7-10.1 28-10.2 12.3-26.1 15.4 1.5 1.2 5.4 6.1 8.3 10.3 13.8 13.9 5.6 3.6 11.1 3.6 4 0 7.6-1.2l1 2.3q-6.2 2.8-14.1 2.7-6.5 0-12-1.6c-3.7-1.2-7.2-2.9-10.4-5.2-3.3-2.3-7.2-6.3-11.9-11.7q-6.2-7.2-9.5-8.9c-9.6-2-18-7.1-24.9-15.3Q232 176.1 232 160.3q0-11.7 6-22.1 5.9-10.4 16.2-16.3 10.2-5.9 22.7-5.9 19.2.1 32.4 12.9zM357 116l.2 2.7q-4.6.3-6.4 2.5c-1.2 1.5-1.7 4.5-1.7 8.9l-.2 60.3c0 1 0 1.9.2 2.8q1.4 6.6 10.5 6.6h5.2q10.1 0 14-2.3c2.7-1.5 4.3-4.1 5-7.8h2.5l-1.4 13.5h-55.1l.1-2.6c3-.4 5.1-1.1 6.3-2.3q1.8-1.9 1.9-8.6v-59.6q0-4.7-.4-6.5-1-4.9-9.3-4.9l-.1-2.7zm-103.2 14.5q-8.8 11.2-8.8 30 0 18.2 8.8 29.6 8.8 11.4 23 11.4 14.8 0 23.7-11 9-11.1 9-29.5c0-12.9-3-23.1-8.9-30.5-5.9-7.5-13.6-11.2-22.9-11.2q-14.9 0-23.9 11.2zm154.3 3c1.1.9 1.9 2 2.1 3.4q.4 1.9-.6 3.4-1.1 1.4-3 1.4-2.1 0-3.8-1.4-1.8-1.5-2.2-3.4-.4-2 .8-3.4 1.1-1.4 3.1-1.4t3.6 1.4zm35.4 7.8v12.8h13.4l.1 4h-13.6l-.1 33.7q0 1.4.3 2.4.8 4.2 4.5 4.2 6 0 13.7-7.8l2.2 1.8q-10.7 12-20.5 12c-4.6 0-7.3-2.1-8.1-6.3-.4-1.7-.5-5.1-.6-10.2l.2-29.8h-8.9l-.1-2.5q11.5-1.1 14.9-14.3zm60.3 13.5c2 1.5 3.3 3.5 3.9 6.1.9 4.2-4 8.3-8.8 12.1q-7.2 5.7-21.4 8 .2 1.8.6 3.5 2.7 13 14.5 13c5.8 0 13.5-3.5 17.2-10.5l1.9 2q-3.5 8.1-7.7 11.7c-2.8 2.5-9.4 3.7-14.1 3.7-5.1 0-9.4-1.5-12.8-4.3-3.3-2.9-5.5-7-6.6-12.2q-2.8-13.4 4.3-24.4c4.8-7.3 11-11 18.6-11 3 0 8.3.8 10.4 2.3zm-90.4-2-.1 37.8c0 2.6.1 4.5.4 5.6.3 1.6 1 2.6 2 3.1q1.6.9 7 .9v2.5h-25.9l.1-2.5q5.3 0 6.6-1c.8-.7 1.2-2.8 1.2-6.5l.2-26.8q0-2.2-.3-3.4-.8-3.7-4.9-3.7l-5.6.7v-2.9l16.3-3.8zm67 11.4c-2.2 4.2-3.1 8.9-2.7 14.1 14.1-2.7 20.4-7.6 19-14.7q-.5-2.2-2.8-4c-1.5-1.2-3-1.8-4.6-1.8-3.6 0-6.6 2.1-8.9 6.4z"></path>
        <path d="M109.8 203.5H17.1c-9.4 0-17.1-7.8-17.1-17.2V31.1C0 21.7 7.7 14 17.1 14h140.8c-33.4 53.8-49.1 143.3-48.1 189.5z" style="fill:#0f80cc"></path>
        <path d="M113.7 153.5C81.8 153 35.7 163.2 5 175V31.1C5 24.4 10.5 19 17.1 19h135.7c-13.9 35.4-32.7 101-39.1 134.5z" style="fill:url(#g1)"></path>
        <path class="s0" d="M169.4 111.6c-15.6 5-33.7 16.1-33.7 16.1s1.5-.8 7.1-3.2c3.8-1.6 15.2-4.3 22.1-5.9-11.6 17.4-21.4 29.6-21.4 29.6s-20.2 8.2-26.4 27.2c3.6-20.3 9.6-41.5 18-64 7.6-20.2 32.8-74.7 51.4-91.5-20.4 16.3-42.7 50.4-58.8 92.9-9.6 28.2-14.7 55.2-15.6 77.6-.5 14.7.7 27.4 3.9 37.1l-1.5.8c-2.1-4.9-3.8-14.1-4.7-24.8-.6-8.1-.8-17.1-.5-25.7-.1-1.3-.1-2.1-.1-2.1s-1.9-12.5-4.6-22.8c-1.2-4.6-2.5-8.7-3.9-11.1-.7-1.2.1-6.3 2.1-13.8 1.2 2 6.2 10.8 7.2 13.7 1.1 3.2 1.4 4.1 1.4 4.1s-2.8-14.2-7.3-22.4c1-3.4 2.2-7.1 3.5-11 1.6 2.7 5.1 9 6.4 12q.2.4.3.8.3.7.5 1.3c.7 2.1.9 2.8.9 2.8s-.3-1.4-.8-3.5c-.2-.9-.4-1.9-.7-3.1-1.2-4.3-2.9-10.1-5.1-14.6 5.7-29.5 24-68.2 43.7-89.1q2.5-2.8 5.1-5C169.4 3.7 181.1.3 190.7 8.9c23.5 21 .2 68.9-21.3 102.7z"></path>
    </g>
</svg>